<svg xmlns="http://www.w3.org/2000/svg" xmlns:xlink="http://www.w3.org/1999/xlink" width="329" zoomAndPan="magnify" viewBox="0 0 246.75 231" height="308" preserveAspectRatio="xMidYMid meet" version="1.0"><defs><clipPath id="6491e01ff1"><path d="M 188.5 86.316406 L 246.191406 86.316406 L 246.191406 116 L 188.5 116 Z M 188.5 86.316406 " clip-rule="nonzero"/></clipPath><clipPath id="052f9713be"><path d="M 188.5 114 L 246.191406 114 L 246.191406 144.007812 L 188.5 144.007812 Z M 188.5 114 " clip-rule="nonzero"/></clipPath><clipPath id="3c38f35133"><path d="M 0 0.117188 L 224.773438 0.117188 L 224.773438 230.132812 L 0 230.132812 Z M 0 0.117188 " clip-rule="nonzero"/></clipPath></defs><g clip-path="url(#6491e01ff1)"><path fill="#010101" d="M 246.261719 101.015625 L 227.90625 115.648438 L 227.90625 107.6875 L 188.5 107.6875 L 188.5 94.339844 L 227.90625 94.339844 L 227.90625 86.316406 Z M 246.261719 101.015625 " fill-opacity="1" fill-rule="nonzero"/></g><g clip-path="url(#052f9713be)"><path fill="#010101" d="M 188.5 129.382812 L 206.855469 144.078125 L 206.855469 136.054688 L 246.261719 136.054688 L 246.261719 122.707031 L 206.855469 122.707031 L 206.855469 114.75 Z M 188.5 129.382812 " fill-opacity="1" fill-rule="nonzero"/></g><g clip-path="url(#3c38f35133)"><path fill="#010101" d="M 122.523438 230.132812 C 164.730469 230.132812 198.652344 214.945312 220.710938 186.097656 L 224.28125 181.375 L 170.597656 133.378906 L 166.390625 138.738281 C 154.65625 153.675781 141.777344 160.695312 126.09375 160.695312 C 100.464844 160.695312 83.886719 142.824219 83.886719 115.125 C 83.886719 87.425781 100.464844 69.554688 126.09375 69.554688 C 141.90625 69.554688 154.65625 76.578125 166.390625 91.511719 L 170.597656 96.871094 L 224.28125 48.878906 L 220.710938 44.15625 C 198.523438 15.308594 164.605469 0.117188 122.523438 0.117188 C 51.75 0.117188 0.488281 48.496094 0.488281 115.125 C 0.488281 181.757812 51.75 230.132812 122.523438 230.132812 Z M 122.523438 230.132812 " fill-opacity="1" fill-rule="nonzero"/></g></svg>